<mxfile host="app.diagrams.net" modified="2021-06-07T06:43:22.742Z" agent="5.0 (Macintosh; Intel Mac OS X 10_15_5) AppleWebKit/605.1.15 (KHTML, like Gecko) Version/13.1.1 Safari/605.1.15" etag="iWu_2gBzr00gCrTR3VzJ" version="14.7.3" type="github" pages="2">
  <diagram id="M0GXjz0kVizOSfqk11xL" name="Page-1">
    <mxGraphModel dx="1042" dy="747" grid="1" gridSize="10" guides="1" tooltips="1" connect="1" arrows="1" fold="1" page="1" pageScale="1" pageWidth="827" pageHeight="1169" math="0" shadow="0">
      <root>
        <mxCell id="0" />
        <mxCell id="1" parent="0" />
        <mxCell id="ibusg23b28n_yPPuOVCP-29" style="edgeStyle=orthogonalEdgeStyle;rounded=0;orthogonalLoop=1;jettySize=auto;html=1;exitX=0.75;exitY=1;exitDx=0;exitDy=0;entryX=0.683;entryY=-0.05;entryDx=0;entryDy=0;entryPerimeter=0;" edge="1" parent="1" source="ibusg23b28n_yPPuOVCP-15" target="ibusg23b28n_yPPuOVCP-20">
          <mxGeometry relative="1" as="geometry" />
        </mxCell>
        <mxCell id="ibusg23b28n_yPPuOVCP-33" style="edgeStyle=orthogonalEdgeStyle;rounded=0;orthogonalLoop=1;jettySize=auto;html=1;exitX=0.75;exitY=1;exitDx=0;exitDy=0;entryX=0.5;entryY=0;entryDx=0;entryDy=0;" edge="1" parent="1" source="ibusg23b28n_yPPuOVCP-15" target="ibusg23b28n_yPPuOVCP-32">
          <mxGeometry relative="1" as="geometry" />
        </mxCell>
        <mxCell id="ibusg23b28n_yPPuOVCP-15" value="获取司机等相关信息" style="rounded=0;whiteSpace=wrap;html=1;fillColor=#dae8fc;strokeColor=#6c8ebf;" vertex="1" parent="1">
          <mxGeometry x="50" y="110" width="630" height="60" as="geometry" />
        </mxCell>
        <mxCell id="ibusg23b28n_yPPuOVCP-16" value="tips信息" style="rounded=1;whiteSpace=wrap;html=1;fillColor=#dae8fc;strokeColor=#6c8ebf;" vertex="1" parent="1">
          <mxGeometry x="70" y="230" width="120" height="60" as="geometry" />
        </mxCell>
        <mxCell id="ibusg23b28n_yPPuOVCP-17" value="司机当前状态文案" style="rounded=1;whiteSpace=wrap;html=1;fillColor=#dae8fc;strokeColor=#6c8ebf;" vertex="1" parent="1">
          <mxGeometry x="260" y="230" width="120" height="60" as="geometry" />
        </mxCell>
        <mxCell id="ibusg23b28n_yPPuOVCP-18" value="车牌和车型" style="rounded=1;whiteSpace=wrap;html=1;fillColor=#dae8fc;strokeColor=#6c8ebf;" vertex="1" parent="1">
          <mxGeometry x="260" y="310" width="120" height="60" as="geometry" />
        </mxCell>
        <mxCell id="ibusg23b28n_yPPuOVCP-19" value="天气" style="rounded=1;whiteSpace=wrap;html=1;fillColor=#dae8fc;strokeColor=#6c8ebf;" vertex="1" parent="1">
          <mxGeometry x="260" y="390" width="120" height="60" as="geometry" />
        </mxCell>
        <mxCell id="ibusg23b28n_yPPuOVCP-26" style="edgeStyle=orthogonalEdgeStyle;rounded=0;orthogonalLoop=1;jettySize=auto;html=1;exitX=0.25;exitY=1;exitDx=0;exitDy=0;entryX=0.25;entryY=0;entryDx=0;entryDy=0;" edge="1" parent="1" source="ibusg23b28n_yPPuOVCP-20" target="ibusg23b28n_yPPuOVCP-24">
          <mxGeometry relative="1" as="geometry" />
        </mxCell>
        <mxCell id="ibusg23b28n_yPPuOVCP-20" value="车的颜色" style="rounded=1;whiteSpace=wrap;html=1;fillColor=#dae8fc;strokeColor=#6c8ebf;" vertex="1" parent="1">
          <mxGeometry x="440" y="230" width="120" height="60" as="geometry" />
        </mxCell>
        <mxCell id="ibusg23b28n_yPPuOVCP-21" value="师傅的头像或者默认头像" style="rounded=1;whiteSpace=wrap;html=1;fillColor=#dae8fc;strokeColor=#6c8ebf;" vertex="1" parent="1">
          <mxGeometry x="260" y="470" width="120" height="60" as="geometry" />
        </mxCell>
        <mxCell id="ibusg23b28n_yPPuOVCP-27" style="edgeStyle=orthogonalEdgeStyle;rounded=0;orthogonalLoop=1;jettySize=auto;html=1;exitX=0.75;exitY=0;exitDx=0;exitDy=0;entryX=0.75;entryY=1;entryDx=0;entryDy=0;" edge="1" parent="1" source="ibusg23b28n_yPPuOVCP-24" target="ibusg23b28n_yPPuOVCP-20">
          <mxGeometry relative="1" as="geometry" />
        </mxCell>
        <mxCell id="ibusg23b28n_yPPuOVCP-24" value="车的图片" style="rounded=1;whiteSpace=wrap;html=1;fillColor=#dae8fc;strokeColor=#6c8ebf;" vertex="1" parent="1">
          <mxGeometry x="440" y="360" width="120" height="60" as="geometry" />
        </mxCell>
        <mxCell id="ibusg23b28n_yPPuOVCP-28" value="需要互相对应，后端能给出来吗？" style="text;html=1;strokeColor=none;fillColor=none;align=center;verticalAlign=middle;whiteSpace=wrap;rounded=0;" vertex="1" parent="1">
          <mxGeometry x="540" y="310" width="190" height="20" as="geometry" />
        </mxCell>
        <mxCell id="ibusg23b28n_yPPuOVCP-31" value="有" style="text;html=1;strokeColor=none;fillColor=none;align=center;verticalAlign=middle;whiteSpace=wrap;rounded=0;" vertex="1" parent="1">
          <mxGeometry x="470" y="190" width="40" height="20" as="geometry" />
        </mxCell>
        <mxCell id="ibusg23b28n_yPPuOVCP-32" value="默认颜色和图片" style="rounded=1;whiteSpace=wrap;html=1;fillColor=#dae8fc;strokeColor=#6c8ebf;" vertex="1" parent="1">
          <mxGeometry x="580" y="230" width="120" height="60" as="geometry" />
        </mxCell>
        <mxCell id="ibusg23b28n_yPPuOVCP-34" value="无" style="text;html=1;strokeColor=none;fillColor=none;align=center;verticalAlign=middle;whiteSpace=wrap;rounded=0;" vertex="1" parent="1">
          <mxGeometry x="560" y="180" width="40" height="20" as="geometry" />
        </mxCell>
        <mxCell id="ibusg23b28n_yPPuOVCP-37" value="" style="edgeStyle=orthogonalEdgeStyle;rounded=0;orthogonalLoop=1;jettySize=auto;html=1;" edge="1" parent="1" source="ibusg23b28n_yPPuOVCP-35">
          <mxGeometry relative="1" as="geometry">
            <mxPoint x="130" y="470" as="targetPoint" />
          </mxGeometry>
        </mxCell>
        <mxCell id="ibusg23b28n_yPPuOVCP-35" value="Banner信息" style="rounded=1;whiteSpace=wrap;html=1;fillColor=#dae8fc;strokeColor=#6c8ebf;" vertex="1" parent="1">
          <mxGeometry x="70" y="330" width="120" height="60" as="geometry" />
        </mxCell>
        <mxCell id="ibusg23b28n_yPPuOVCP-38" value="跳转小程序 or H5 ？？" style="text;html=1;strokeColor=none;fillColor=none;align=center;verticalAlign=middle;whiteSpace=wrap;rounded=0;" vertex="1" parent="1">
          <mxGeometry x="50" y="480" width="160" height="20" as="geometry" />
        </mxCell>
        <mxCell id="ibusg23b28n_yPPuOVCP-39" value="ToolBar（动态的还是前端写死？）" style="rounded=1;whiteSpace=wrap;html=1;fillColor=#d5e8d4;strokeColor=#82b366;" vertex="1" parent="1">
          <mxGeometry x="50" y="590" width="710" height="60" as="geometry" />
        </mxCell>
        <mxCell id="ibusg23b28n_yPPuOVCP-42" value="" style="edgeStyle=orthogonalEdgeStyle;rounded=0;orthogonalLoop=1;jettySize=auto;html=1;" edge="1" parent="1" source="ibusg23b28n_yPPuOVCP-40" target="ibusg23b28n_yPPuOVCP-41">
          <mxGeometry relative="1" as="geometry" />
        </mxCell>
        <mxCell id="ibusg23b28n_yPPuOVCP-40" value="紧急求助" style="rounded=1;whiteSpace=wrap;html=1;fillColor=#d5e8d4;strokeColor=#82b366;" vertex="1" parent="1">
          <mxGeometry x="50" y="680" width="120" height="60" as="geometry" />
        </mxCell>
        <mxCell id="ibusg23b28n_yPPuOVCP-41" value="跳转到原来的报警页面" style="rounded=1;whiteSpace=wrap;html=1;fillColor=#d5e8d4;strokeColor=#82b366;" vertex="1" parent="1">
          <mxGeometry x="50" y="820" width="120" height="60" as="geometry" />
        </mxCell>
        <mxCell id="ibusg23b28n_yPPuOVCP-43" value="打电话（已有功能）" style="rounded=1;whiteSpace=wrap;html=1;fillColor=#d5e8d4;strokeColor=#82b366;" vertex="1" parent="1">
          <mxGeometry x="200" y="680" width="120" height="60" as="geometry" />
        </mxCell>
        <mxCell id="ibusg23b28n_yPPuOVCP-44" value="发消息？？" style="rounded=1;whiteSpace=wrap;html=1;fillColor=#d5e8d4;strokeColor=#82b366;" vertex="1" parent="1">
          <mxGeometry x="345" y="680" width="120" height="60" as="geometry" />
        </mxCell>
        <mxCell id="ibusg23b28n_yPPuOVCP-47" value="" style="edgeStyle=orthogonalEdgeStyle;rounded=0;orthogonalLoop=1;jettySize=auto;html=1;" edge="1" parent="1" source="ibusg23b28n_yPPuOVCP-45" target="ibusg23b28n_yPPuOVCP-46">
          <mxGeometry relative="1" as="geometry" />
        </mxCell>
        <mxCell id="ibusg23b28n_yPPuOVCP-45" value="修改终点" style="rounded=1;whiteSpace=wrap;html=1;fillColor=#d5e8d4;strokeColor=#82b366;" vertex="1" parent="1">
          <mxGeometry x="490" y="680" width="120" height="60" as="geometry" />
        </mxCell>
        <mxCell id="ibusg23b28n_yPPuOVCP-46" value="跳转到本次冬菊开发的页面" style="rounded=1;whiteSpace=wrap;html=1;fillColor=#d5e8d4;strokeColor=#82b366;" vertex="1" parent="1">
          <mxGeometry x="490" y="820" width="120" height="60" as="geometry" />
        </mxCell>
        <mxCell id="ibusg23b28n_yPPuOVCP-48" value="取消订单（已有功能）" style="rounded=1;whiteSpace=wrap;html=1;fillColor=#d5e8d4;strokeColor=#82b366;" vertex="1" parent="1">
          <mxGeometry x="650" y="680" width="120" height="60" as="geometry" />
        </mxCell>
      </root>
    </mxGraphModel>
  </diagram>
  <diagram id="YMwETe-o5JyK5KCpaD5P" name="Page-2">
    <mxGraphModel dx="1869" dy="747" grid="1" gridSize="10" guides="1" tooltips="1" connect="1" arrows="1" fold="1" page="1" pageScale="1" pageWidth="827" pageHeight="1169" math="0" shadow="0">
      <root>
        <mxCell id="_jmYUeYiFWSKFXeWbkaF-0" />
        <mxCell id="_jmYUeYiFWSKFXeWbkaF-1" parent="_jmYUeYiFWSKFXeWbkaF-0" />
        <mxCell id="_jmYUeYiFWSKFXeWbkaF-51" style="edgeStyle=orthogonalEdgeStyle;rounded=0;orthogonalLoop=1;jettySize=auto;html=1;exitX=0.5;exitY=1;exitDx=0;exitDy=0;entryX=0.5;entryY=0;entryDx=0;entryDy=0;" edge="1" parent="_jmYUeYiFWSKFXeWbkaF-1" source="_jmYUeYiFWSKFXeWbkaF-2" target="_jmYUeYiFWSKFXeWbkaF-22">
          <mxGeometry relative="1" as="geometry">
            <Array as="points">
              <mxPoint x="370" y="170" />
              <mxPoint x="160" y="170" />
            </Array>
          </mxGeometry>
        </mxCell>
        <mxCell id="_jmYUeYiFWSKFXeWbkaF-74" style="edgeStyle=orthogonalEdgeStyle;rounded=0;orthogonalLoop=1;jettySize=auto;html=1;exitX=0.5;exitY=1;exitDx=0;exitDy=0;entryX=0.5;entryY=0;entryDx=0;entryDy=0;" edge="1" parent="_jmYUeYiFWSKFXeWbkaF-1" source="_jmYUeYiFWSKFXeWbkaF-2" target="_jmYUeYiFWSKFXeWbkaF-75">
          <mxGeometry relative="1" as="geometry">
            <mxPoint x="710" y="200" as="targetPoint" />
          </mxGeometry>
        </mxCell>
        <mxCell id="_jmYUeYiFWSKFXeWbkaF-93" style="edgeStyle=orthogonalEdgeStyle;rounded=0;orthogonalLoop=1;jettySize=auto;html=1;exitX=0.5;exitY=1;exitDx=0;exitDy=0;" edge="1" parent="_jmYUeYiFWSKFXeWbkaF-1" source="_jmYUeYiFWSKFXeWbkaF-2" target="_jmYUeYiFWSKFXeWbkaF-89">
          <mxGeometry relative="1" as="geometry">
            <Array as="points">
              <mxPoint x="370" y="170" />
              <mxPoint x="1200" y="170" />
            </Array>
          </mxGeometry>
        </mxCell>
        <mxCell id="_jmYUeYiFWSKFXeWbkaF-2" value="当前订单状态轮询" style="rounded=1;whiteSpace=wrap;html=1;fillColor=#f5f5f5;strokeColor=#666666;fontColor=#333333;" vertex="1" parent="_jmYUeYiFWSKFXeWbkaF-1">
          <mxGeometry x="310" y="80" width="120" height="60" as="geometry" />
        </mxCell>
        <mxCell id="_jmYUeYiFWSKFXeWbkaF-26" style="edgeStyle=orthogonalEdgeStyle;rounded=0;orthogonalLoop=1;jettySize=auto;html=1;exitX=0.5;exitY=1;exitDx=0;exitDy=0;" edge="1" parent="_jmYUeYiFWSKFXeWbkaF-1" source="_jmYUeYiFWSKFXeWbkaF-22">
          <mxGeometry relative="1" as="geometry">
            <mxPoint x="80" y="280" as="targetPoint" />
          </mxGeometry>
        </mxCell>
        <mxCell id="_jmYUeYiFWSKFXeWbkaF-94" style="edgeStyle=orthogonalEdgeStyle;rounded=0;orthogonalLoop=1;jettySize=auto;html=1;exitX=0.5;exitY=1;exitDx=0;exitDy=0;entryX=0.5;entryY=0;entryDx=0;entryDy=0;" edge="1" parent="_jmYUeYiFWSKFXeWbkaF-1" source="_jmYUeYiFWSKFXeWbkaF-22" target="_jmYUeYiFWSKFXeWbkaF-61">
          <mxGeometry relative="1" as="geometry" />
        </mxCell>
        <mxCell id="_jmYUeYiFWSKFXeWbkaF-95" style="edgeStyle=orthogonalEdgeStyle;rounded=0;orthogonalLoop=1;jettySize=auto;html=1;exitX=0.5;exitY=1;exitDx=0;exitDy=0;entryX=0.433;entryY=-0.075;entryDx=0;entryDy=0;entryPerimeter=0;" edge="1" parent="_jmYUeYiFWSKFXeWbkaF-1" source="_jmYUeYiFWSKFXeWbkaF-22" target="_jmYUeYiFWSKFXeWbkaF-62">
          <mxGeometry relative="1" as="geometry" />
        </mxCell>
        <mxCell id="_jmYUeYiFWSKFXeWbkaF-22" value="103" style="rounded=1;whiteSpace=wrap;html=1;fillColor=#dae8fc;strokeColor=#6c8ebf;" vertex="1" parent="_jmYUeYiFWSKFXeWbkaF-1">
          <mxGeometry x="100" y="190" width="120" height="30" as="geometry" />
        </mxCell>
        <mxCell id="_jmYUeYiFWSKFXeWbkaF-23" style="edgeStyle=orthogonalEdgeStyle;rounded=0;orthogonalLoop=1;jettySize=auto;html=1;exitX=0.5;exitY=1;exitDx=0;exitDy=0;" edge="1" parent="_jmYUeYiFWSKFXeWbkaF-1" source="_jmYUeYiFWSKFXeWbkaF-22" target="_jmYUeYiFWSKFXeWbkaF-22">
          <mxGeometry relative="1" as="geometry" />
        </mxCell>
        <mxCell id="_jmYUeYiFWSKFXeWbkaF-27" style="edgeStyle=orthogonalEdgeStyle;rounded=0;orthogonalLoop=1;jettySize=auto;html=1;exitX=0.5;exitY=1;exitDx=0;exitDy=0;" edge="1" parent="_jmYUeYiFWSKFXeWbkaF-1">
          <mxGeometry relative="1" as="geometry">
            <mxPoint x="80" y="420" as="sourcePoint" />
            <mxPoint x="80" y="420" as="targetPoint" />
          </mxGeometry>
        </mxCell>
        <mxCell id="_jmYUeYiFWSKFXeWbkaF-28" style="edgeStyle=orthogonalEdgeStyle;rounded=0;orthogonalLoop=1;jettySize=auto;html=1;exitX=0.5;exitY=1;exitDx=0;exitDy=0;" edge="1" parent="_jmYUeYiFWSKFXeWbkaF-1">
          <mxGeometry relative="1" as="geometry">
            <mxPoint x="80" y="420" as="sourcePoint" />
            <mxPoint x="80" y="420" as="targetPoint" />
          </mxGeometry>
        </mxCell>
        <mxCell id="_jmYUeYiFWSKFXeWbkaF-29" value="司机正在赶来" style="rounded=1;whiteSpace=wrap;html=1;fillColor=#d5e8d4;strokeColor=#82b366;" vertex="1" parent="_jmYUeYiFWSKFXeWbkaF-1">
          <mxGeometry x="20" y="340" width="120" height="40" as="geometry" />
        </mxCell>
        <mxCell id="_jmYUeYiFWSKFXeWbkaF-30" style="edgeStyle=orthogonalEdgeStyle;rounded=0;orthogonalLoop=1;jettySize=auto;html=1;exitX=0.5;exitY=1;exitDx=0;exitDy=0;" edge="1" parent="_jmYUeYiFWSKFXeWbkaF-1" source="_jmYUeYiFWSKFXeWbkaF-29" target="_jmYUeYiFWSKFXeWbkaF-29">
          <mxGeometry relative="1" as="geometry" />
        </mxCell>
        <mxCell id="_jmYUeYiFWSKFXeWbkaF-32" value="订单预约成功" style="rounded=1;whiteSpace=wrap;html=1;fillColor=#e1d5e7;strokeColor=#9673a6;" vertex="1" parent="_jmYUeYiFWSKFXeWbkaF-1">
          <mxGeometry x="160" y="340" width="120" height="40" as="geometry" />
        </mxCell>
        <mxCell id="_jmYUeYiFWSKFXeWbkaF-36" value="司机已到达" style="rounded=1;whiteSpace=wrap;html=1;fillColor=#d5e8d4;strokeColor=#82b366;" vertex="1" parent="_jmYUeYiFWSKFXeWbkaF-1">
          <mxGeometry x="650" y="345" width="120" height="40" as="geometry" />
        </mxCell>
        <mxCell id="_jmYUeYiFWSKFXeWbkaF-50" value="行程中" style="rounded=1;whiteSpace=wrap;html=1;fillColor=#d5e8d4;strokeColor=#82b366;" vertex="1" parent="_jmYUeYiFWSKFXeWbkaF-1">
          <mxGeometry x="1060" y="350" width="120" height="40" as="geometry" />
        </mxCell>
        <mxCell id="_jmYUeYiFWSKFXeWbkaF-55" value="请准时到“xxx起始点”上车" style="rounded=1;whiteSpace=wrap;html=1;fillColor=#d5e8d4;strokeColor=#82b366;" vertex="1" parent="_jmYUeYiFWSKFXeWbkaF-1">
          <mxGeometry x="20" y="400" width="120" height="40" as="geometry" />
        </mxCell>
        <mxCell id="_jmYUeYiFWSKFXeWbkaF-56" value="&lt;div class=&quot;lake-content&quot;&gt;&lt;ul class=&quot;ne-ul&quot; style=&quot;margin: 0px 0px 0px 2em ; padding-left: 23px ; list-style: circle&quot;&gt;&lt;li id=&quot;ud6bd0647&quot;&gt;&lt;span class=&quot;ne-text&quot;&gt;${日期} ${时间}&lt;/span&gt;&lt;/li&gt;&lt;li id=&quot;u240501ad&quot;&gt;&lt;span class=&quot;ne-text&quot;&gt;若日期为今天或明天时，则展示“今天”/“明天”以替代日期&lt;/span&gt;&lt;/li&gt;&lt;/ul&gt;&lt;ul class=&quot;ne-ul&quot; style=&quot;margin: 0px 0px 0px 2em ; padding-left: 23px ; list-style: circle&quot;&gt;&lt;li id=&quot;uf4e0a685&quot;&gt;&lt;span class=&quot;ne-text&quot;&gt;例如：今天 19:00&amp;nbsp; /明天 19:00&amp;nbsp; /3月23日 19:00&lt;/span&gt;&lt;/li&gt;&lt;/ul&gt;&lt;/div&gt;" style="rounded=1;whiteSpace=wrap;html=1;align=left;fillColor=#e1d5e7;strokeColor=#9673a6;" vertex="1" parent="_jmYUeYiFWSKFXeWbkaF-1">
          <mxGeometry x="160" y="400" width="180" height="110" as="geometry" />
        </mxCell>
        <mxCell id="_jmYUeYiFWSKFXeWbkaF-57" value="请您尽快联系司机上车" style="rounded=1;whiteSpace=wrap;html=1;fillColor=#d5e8d4;strokeColor=#82b366;" vertex="1" parent="_jmYUeYiFWSKFXeWbkaF-1">
          <mxGeometry x="650" y="410" width="120" height="40" as="geometry" />
        </mxCell>
        <mxCell id="_jmYUeYiFWSKFXeWbkaF-58" value="行程已开始，请系好安全带" style="rounded=1;whiteSpace=wrap;html=1;fillColor=#d5e8d4;strokeColor=#82b366;" vertex="1" parent="_jmYUeYiFWSKFXeWbkaF-1">
          <mxGeometry x="1060" y="410" width="120" height="40" as="geometry" />
        </mxCell>
        <mxCell id="_jmYUeYiFWSKFXeWbkaF-59" value="实时单" style="rounded=1;whiteSpace=wrap;html=1;fillColor=#d5e8d4;strokeColor=#82b366;" vertex="1" parent="_jmYUeYiFWSKFXeWbkaF-1">
          <mxGeometry x="20" y="280" width="120" height="40" as="geometry" />
        </mxCell>
        <mxCell id="_jmYUeYiFWSKFXeWbkaF-61" value="预约单（司机位置透出与未透出展现的文案一致）" style="rounded=1;whiteSpace=wrap;html=1;fillColor=#e1d5e7;strokeColor=#9673a6;" vertex="1" parent="_jmYUeYiFWSKFXeWbkaF-1">
          <mxGeometry x="160" y="280" width="140" height="40" as="geometry" />
        </mxCell>
        <mxCell id="_jmYUeYiFWSKFXeWbkaF-62" value="接送机" style="rounded=1;whiteSpace=wrap;html=1;fillColor=#fff2cc;strokeColor=#d6b656;" vertex="1" parent="_jmYUeYiFWSKFXeWbkaF-1">
          <mxGeometry x="350" y="280" width="120" height="40" as="geometry" />
        </mxCell>
        <mxCell id="_jmYUeYiFWSKFXeWbkaF-63" value="已预约成功 +“ 预约时间”【格式与预约单一致】" style="rounded=1;whiteSpace=wrap;html=1;fillColor=#fff2cc;strokeColor=#d6b656;" vertex="1" parent="_jmYUeYiFWSKFXeWbkaF-1">
          <mxGeometry x="354" y="340" width="120" height="50" as="geometry" />
        </mxCell>
        <mxCell id="_jmYUeYiFWSKFXeWbkaF-70" style="edgeStyle=orthogonalEdgeStyle;rounded=0;orthogonalLoop=1;jettySize=auto;html=1;exitX=0.5;exitY=1;exitDx=0;exitDy=0;" edge="1" parent="_jmYUeYiFWSKFXeWbkaF-1" source="_jmYUeYiFWSKFXeWbkaF-64" target="_jmYUeYiFWSKFXeWbkaF-65">
          <mxGeometry relative="1" as="geometry">
            <Array as="points">
              <mxPoint x="414" y="475" />
              <mxPoint x="410" y="475" />
            </Array>
          </mxGeometry>
        </mxCell>
        <mxCell id="_jmYUeYiFWSKFXeWbkaF-80" style="edgeStyle=orthogonalEdgeStyle;rounded=0;orthogonalLoop=1;jettySize=auto;html=1;exitX=0.5;exitY=1;exitDx=0;exitDy=0;" edge="1" parent="_jmYUeYiFWSKFXeWbkaF-1" source="_jmYUeYiFWSKFXeWbkaF-64" target="_jmYUeYiFWSKFXeWbkaF-68">
          <mxGeometry relative="1" as="geometry" />
        </mxCell>
        <mxCell id="_jmYUeYiFWSKFXeWbkaF-64" value="服务有免费等待" style="rounded=1;whiteSpace=wrap;html=1;fillColor=#fff2cc;strokeColor=#d6b656;" vertex="1" parent="_jmYUeYiFWSKFXeWbkaF-1">
          <mxGeometry x="354" y="410" width="120" height="40" as="geometry" />
        </mxCell>
        <mxCell id="_jmYUeYiFWSKFXeWbkaF-65" value="请准时到“xx上车点”上车" style="rounded=1;whiteSpace=wrap;html=1;fillColor=#fff2cc;strokeColor=#d6b656;" vertex="1" parent="_jmYUeYiFWSKFXeWbkaF-1">
          <mxGeometry x="350" y="500" width="120" height="40" as="geometry" />
        </mxCell>
        <mxCell id="_jmYUeYiFWSKFXeWbkaF-68" value="&lt;div class=&quot;lake-content&quot;&gt;&lt;span class=&quot;ne-text&quot;&gt;航班抵达后司机免费等候60分钟 乘车须知（乘车须知点击跳转原说明页）&lt;/span&gt;&lt;/div&gt;" style="rounded=1;whiteSpace=wrap;html=1;fillColor=#fff2cc;strokeColor=#d6b656;" vertex="1" parent="_jmYUeYiFWSKFXeWbkaF-1">
          <mxGeometry x="510" y="500" width="120" height="80" as="geometry" />
        </mxCell>
        <mxCell id="_jmYUeYiFWSKFXeWbkaF-72" value="无" style="text;html=1;strokeColor=none;fillColor=none;align=center;verticalAlign=middle;whiteSpace=wrap;rounded=0;" vertex="1" parent="_jmYUeYiFWSKFXeWbkaF-1">
          <mxGeometry x="370" y="470" width="40" height="20" as="geometry" />
        </mxCell>
        <mxCell id="_jmYUeYiFWSKFXeWbkaF-73" value="有" style="text;html=1;strokeColor=none;fillColor=none;align=center;verticalAlign=middle;whiteSpace=wrap;rounded=0;" vertex="1" parent="_jmYUeYiFWSKFXeWbkaF-1">
          <mxGeometry x="490" y="450" width="40" height="20" as="geometry" />
        </mxCell>
        <mxCell id="_jmYUeYiFWSKFXeWbkaF-107" style="edgeStyle=orthogonalEdgeStyle;rounded=0;orthogonalLoop=1;jettySize=auto;html=1;exitX=0.5;exitY=1;exitDx=0;exitDy=0;entryX=0.5;entryY=0;entryDx=0;entryDy=0;strokeWidth=1;" edge="1" parent="_jmYUeYiFWSKFXeWbkaF-1" source="_jmYUeYiFWSKFXeWbkaF-75" target="_jmYUeYiFWSKFXeWbkaF-76">
          <mxGeometry relative="1" as="geometry" />
        </mxCell>
        <mxCell id="_jmYUeYiFWSKFXeWbkaF-108" style="edgeStyle=orthogonalEdgeStyle;rounded=0;orthogonalLoop=1;jettySize=auto;html=1;exitX=0.5;exitY=1;exitDx=0;exitDy=0;entryX=0.5;entryY=0;entryDx=0;entryDy=0;strokeWidth=1;" edge="1" parent="_jmYUeYiFWSKFXeWbkaF-1" source="_jmYUeYiFWSKFXeWbkaF-75" target="_jmYUeYiFWSKFXeWbkaF-78">
          <mxGeometry relative="1" as="geometry" />
        </mxCell>
        <mxCell id="_jmYUeYiFWSKFXeWbkaF-75" value="104" style="rounded=1;whiteSpace=wrap;html=1;fillColor=#dae8fc;strokeColor=#6c8ebf;" vertex="1" parent="_jmYUeYiFWSKFXeWbkaF-1">
          <mxGeometry x="740" y="200" width="110" height="30" as="geometry" />
        </mxCell>
        <mxCell id="_jmYUeYiFWSKFXeWbkaF-76" value="实时单和预约单" style="rounded=1;whiteSpace=wrap;html=1;fillColor=#d5e8d4;strokeColor=#82b366;" vertex="1" parent="_jmYUeYiFWSKFXeWbkaF-1">
          <mxGeometry x="650" y="280" width="120" height="40" as="geometry" />
        </mxCell>
        <mxCell id="_jmYUeYiFWSKFXeWbkaF-78" value="接送机" style="rounded=1;whiteSpace=wrap;html=1;fillColor=#e1d5e7;strokeColor=#9673a6;" vertex="1" parent="_jmYUeYiFWSKFXeWbkaF-1">
          <mxGeometry x="800" y="280" width="120" height="40" as="geometry" />
        </mxCell>
        <mxCell id="_jmYUeYiFWSKFXeWbkaF-79" value="司机已到达上车点" style="rounded=1;whiteSpace=wrap;html=1;fillColor=#e1d5e7;strokeColor=#9673a6;" vertex="1" parent="_jmYUeYiFWSKFXeWbkaF-1">
          <mxGeometry x="810" y="345" width="120" height="35" as="geometry" />
        </mxCell>
        <mxCell id="_jmYUeYiFWSKFXeWbkaF-84" style="edgeStyle=orthogonalEdgeStyle;rounded=0;orthogonalLoop=1;jettySize=auto;html=1;exitX=0.5;exitY=1;exitDx=0;exitDy=0;entryX=0.5;entryY=0;entryDx=0;entryDy=0;" edge="1" parent="_jmYUeYiFWSKFXeWbkaF-1" source="_jmYUeYiFWSKFXeWbkaF-81" target="_jmYUeYiFWSKFXeWbkaF-82">
          <mxGeometry relative="1" as="geometry" />
        </mxCell>
        <mxCell id="_jmYUeYiFWSKFXeWbkaF-85" style="edgeStyle=orthogonalEdgeStyle;rounded=0;orthogonalLoop=1;jettySize=auto;html=1;exitX=0.5;exitY=1;exitDx=0;exitDy=0;entryX=0.5;entryY=0;entryDx=0;entryDy=0;" edge="1" parent="_jmYUeYiFWSKFXeWbkaF-1" source="_jmYUeYiFWSKFXeWbkaF-81" target="_jmYUeYiFWSKFXeWbkaF-83">
          <mxGeometry relative="1" as="geometry" />
        </mxCell>
        <mxCell id="_jmYUeYiFWSKFXeWbkaF-81" value="服务有免费等待" style="rounded=1;whiteSpace=wrap;html=1;fillColor=#e1d5e7;strokeColor=#9673a6;" vertex="1" parent="_jmYUeYiFWSKFXeWbkaF-1">
          <mxGeometry x="810" y="410" width="120" height="40" as="geometry" />
        </mxCell>
        <mxCell id="_jmYUeYiFWSKFXeWbkaF-82" value="请您尽快联系司机上车" style="rounded=1;whiteSpace=wrap;html=1;fillColor=#e1d5e7;strokeColor=#9673a6;" vertex="1" parent="_jmYUeYiFWSKFXeWbkaF-1">
          <mxGeometry x="770" y="500" width="120" height="50" as="geometry" />
        </mxCell>
        <mxCell id="_jmYUeYiFWSKFXeWbkaF-83" value="&lt;div class=&quot;lake-content&quot;&gt;&lt;ul class=&quot;ne-ul&quot; style=&quot;margin: 0px ; padding-left: 23px&quot;&gt;&lt;li id=&quot;u0c1356b6&quot;&gt;&lt;span class=&quot;ne-text&quot;&gt;若读取到服务有免费等待的配置看，则展示：航班抵达后司机免费等候60分钟 乘车须知（乘车须知点击跳转原说明页）&lt;/span&gt;&lt;/li&gt;&lt;/ul&gt;&lt;/div&gt;" style="rounded=1;whiteSpace=wrap;html=1;fillColor=#e1d5e7;strokeColor=#9673a6;" vertex="1" parent="_jmYUeYiFWSKFXeWbkaF-1">
          <mxGeometry x="920" y="500" width="120" height="130" as="geometry" />
        </mxCell>
        <mxCell id="_jmYUeYiFWSKFXeWbkaF-86" value="无" style="text;html=1;strokeColor=none;fillColor=none;align=center;verticalAlign=middle;whiteSpace=wrap;rounded=0;" vertex="1" parent="_jmYUeYiFWSKFXeWbkaF-1">
          <mxGeometry x="780" y="470" width="40" height="20" as="geometry" />
        </mxCell>
        <mxCell id="_jmYUeYiFWSKFXeWbkaF-87" value="有" style="text;html=1;strokeColor=none;fillColor=none;align=center;verticalAlign=middle;whiteSpace=wrap;rounded=0;" vertex="1" parent="_jmYUeYiFWSKFXeWbkaF-1">
          <mxGeometry x="950" y="450" width="40" height="20" as="geometry" />
        </mxCell>
        <mxCell id="_jmYUeYiFWSKFXeWbkaF-88" value="实时单和预约单" style="rounded=1;whiteSpace=wrap;html=1;fillColor=#d5e8d4;strokeColor=#82b366;" vertex="1" parent="_jmYUeYiFWSKFXeWbkaF-1">
          <mxGeometry x="1060" y="290" width="120" height="40" as="geometry" />
        </mxCell>
        <mxCell id="_jmYUeYiFWSKFXeWbkaF-98" style="edgeStyle=orthogonalEdgeStyle;rounded=0;orthogonalLoop=1;jettySize=auto;html=1;exitX=0.5;exitY=1;exitDx=0;exitDy=0;entryX=0.5;entryY=0;entryDx=0;entryDy=0;" edge="1" parent="_jmYUeYiFWSKFXeWbkaF-1" source="_jmYUeYiFWSKFXeWbkaF-89" target="_jmYUeYiFWSKFXeWbkaF-88">
          <mxGeometry relative="1" as="geometry" />
        </mxCell>
        <mxCell id="_jmYUeYiFWSKFXeWbkaF-99" style="edgeStyle=orthogonalEdgeStyle;rounded=0;orthogonalLoop=1;jettySize=auto;html=1;exitX=0.5;exitY=1;exitDx=0;exitDy=0;entryX=0.5;entryY=0;entryDx=0;entryDy=0;" edge="1" parent="_jmYUeYiFWSKFXeWbkaF-1" source="_jmYUeYiFWSKFXeWbkaF-89" target="_jmYUeYiFWSKFXeWbkaF-90">
          <mxGeometry relative="1" as="geometry" />
        </mxCell>
        <mxCell id="_jmYUeYiFWSKFXeWbkaF-89" value="105" style="rounded=1;whiteSpace=wrap;html=1;fillColor=#dae8fc;strokeColor=#6c8ebf;" vertex="1" parent="_jmYUeYiFWSKFXeWbkaF-1">
          <mxGeometry x="1140" y="210" width="120" height="40" as="geometry" />
        </mxCell>
        <mxCell id="_jmYUeYiFWSKFXeWbkaF-90" value="接送机" style="rounded=1;whiteSpace=wrap;html=1;fillColor=#e1d5e7;strokeColor=#9673a6;" vertex="1" parent="_jmYUeYiFWSKFXeWbkaF-1">
          <mxGeometry x="1241" y="290" width="120" height="40" as="geometry" />
        </mxCell>
        <mxCell id="_jmYUeYiFWSKFXeWbkaF-91" value="行程中" style="rounded=1;whiteSpace=wrap;html=1;fillColor=#e1d5e7;strokeColor=#9673a6;" vertex="1" parent="_jmYUeYiFWSKFXeWbkaF-1">
          <mxGeometry x="1250" y="350" width="120" height="40" as="geometry" />
        </mxCell>
        <mxCell id="_jmYUeYiFWSKFXeWbkaF-92" value="&lt;div class=&quot;lake-content&quot;&gt;&lt;span class=&quot;ne-text&quot;&gt;行程已开始，请系好安全带 乘车须知（乘车须知点击跳转原说明页）&lt;/span&gt;&lt;/div&gt;" style="rounded=1;whiteSpace=wrap;html=1;fillColor=#e1d5e7;strokeColor=#9673a6;" vertex="1" parent="_jmYUeYiFWSKFXeWbkaF-1">
          <mxGeometry x="1250" y="410" width="120" height="60" as="geometry" />
        </mxCell>
        <mxCell id="_jmYUeYiFWSKFXeWbkaF-100" value="" style="endArrow=none;dashed=1;html=1;strokeWidth=2;" edge="1" parent="_jmYUeYiFWSKFXeWbkaF-1">
          <mxGeometry width="50" height="50" relative="1" as="geometry">
            <mxPoint x="-40" y="330" as="sourcePoint" />
            <mxPoint x="1440" y="330" as="targetPoint" />
            <Array as="points">
              <mxPoint x="-10" y="330" />
            </Array>
          </mxGeometry>
        </mxCell>
        <mxCell id="_jmYUeYiFWSKFXeWbkaF-102" value="" style="endArrow=none;dashed=1;html=1;strokeWidth=2;" edge="1" parent="_jmYUeYiFWSKFXeWbkaF-1">
          <mxGeometry width="50" height="50" relative="1" as="geometry">
            <mxPoint x="-40" y="400" as="sourcePoint" />
            <mxPoint x="1450" y="400" as="targetPoint" />
          </mxGeometry>
        </mxCell>
        <mxCell id="_jmYUeYiFWSKFXeWbkaF-104" value="主标题" style="text;html=1;strokeColor=none;fillColor=none;align=center;verticalAlign=middle;whiteSpace=wrap;rounded=0;" vertex="1" parent="_jmYUeYiFWSKFXeWbkaF-1">
          <mxGeometry x="-90" y="350" width="40" height="20" as="geometry" />
        </mxCell>
        <mxCell id="_jmYUeYiFWSKFXeWbkaF-105" value="副标题" style="text;html=1;strokeColor=none;fillColor=none;align=center;verticalAlign=middle;whiteSpace=wrap;rounded=0;" vertex="1" parent="_jmYUeYiFWSKFXeWbkaF-1">
          <mxGeometry x="-90" y="470" width="40" height="20" as="geometry" />
        </mxCell>
        <mxCell id="_jmYUeYiFWSKFXeWbkaF-109" value="" style="endArrow=none;dashed=1;html=1;strokeWidth=1;" edge="1" parent="_jmYUeYiFWSKFXeWbkaF-1">
          <mxGeometry width="50" height="50" relative="1" as="geometry">
            <mxPoint x="640" y="790" as="sourcePoint" />
            <mxPoint x="640" y="170" as="targetPoint" />
          </mxGeometry>
        </mxCell>
        <mxCell id="_jmYUeYiFWSKFXeWbkaF-110" value="" style="endArrow=none;dashed=1;html=1;strokeWidth=1;" edge="1" parent="_jmYUeYiFWSKFXeWbkaF-1">
          <mxGeometry width="50" height="50" relative="1" as="geometry">
            <mxPoint x="1060" y="790" as="sourcePoint" />
            <mxPoint x="1050" y="170" as="targetPoint" />
          </mxGeometry>
        </mxCell>
        <mxCell id="_jmYUeYiFWSKFXeWbkaF-111" value="" style="endArrow=none;dashed=1;html=1;strokeWidth=2;" edge="1" parent="_jmYUeYiFWSKFXeWbkaF-1">
          <mxGeometry width="50" height="50" relative="1" as="geometry">
            <mxPoint x="-30" y="640" as="sourcePoint" />
            <mxPoint x="1500" y="640" as="targetPoint" />
          </mxGeometry>
        </mxCell>
        <mxCell id="_jmYUeYiFWSKFXeWbkaF-112" value="工具栏" style="text;html=1;strokeColor=none;fillColor=none;align=center;verticalAlign=middle;whiteSpace=wrap;rounded=0;" vertex="1" parent="_jmYUeYiFWSKFXeWbkaF-1">
          <mxGeometry x="-90" y="720" width="40" height="20" as="geometry" />
        </mxCell>
        <mxCell id="_jmYUeYiFWSKFXeWbkaF-113" value="紧急求助" style="rounded=1;whiteSpace=wrap;html=1;fillColor=#dae8fc;strokeColor=#6c8ebf;" vertex="1" parent="_jmYUeYiFWSKFXeWbkaF-1">
          <mxGeometry x="-10" y="700" width="120" height="40" as="geometry" />
        </mxCell>
        <mxCell id="_jmYUeYiFWSKFXeWbkaF-114" value="打电话" style="rounded=1;whiteSpace=wrap;html=1;fillColor=#dae8fc;strokeColor=#6c8ebf;" vertex="1" parent="_jmYUeYiFWSKFXeWbkaF-1">
          <mxGeometry x="140" y="700" width="120" height="40" as="geometry" />
        </mxCell>
        <mxCell id="_jmYUeYiFWSKFXeWbkaF-115" value="修改终点" style="rounded=1;whiteSpace=wrap;html=1;fillColor=#dae8fc;strokeColor=#6c8ebf;" vertex="1" parent="_jmYUeYiFWSKFXeWbkaF-1">
          <mxGeometry x="300" y="700" width="120" height="40" as="geometry" />
        </mxCell>
        <mxCell id="_jmYUeYiFWSKFXeWbkaF-116" value="取消订单" style="rounded=1;whiteSpace=wrap;html=1;fillColor=#dae8fc;strokeColor=#6c8ebf;" vertex="1" parent="_jmYUeYiFWSKFXeWbkaF-1">
          <mxGeometry x="460" y="700" width="120" height="40" as="geometry" />
        </mxCell>
        <mxCell id="_jmYUeYiFWSKFXeWbkaF-117" value="紧急求助" style="rounded=1;whiteSpace=wrap;html=1;fillColor=#dae8fc;strokeColor=#6c8ebf;" vertex="1" parent="_jmYUeYiFWSKFXeWbkaF-1">
          <mxGeometry x="660" y="680" width="120" height="30" as="geometry" />
        </mxCell>
        <mxCell id="_jmYUeYiFWSKFXeWbkaF-118" value="打电话" style="rounded=1;whiteSpace=wrap;html=1;fillColor=#dae8fc;strokeColor=#6c8ebf;" vertex="1" parent="_jmYUeYiFWSKFXeWbkaF-1">
          <mxGeometry x="810" y="680" width="120" height="30" as="geometry" />
        </mxCell>
        <mxCell id="_jmYUeYiFWSKFXeWbkaF-119" value="修改终点" style="rounded=1;whiteSpace=wrap;html=1;fillColor=#dae8fc;strokeColor=#6c8ebf;" vertex="1" parent="_jmYUeYiFWSKFXeWbkaF-1">
          <mxGeometry x="950" y="680" width="100" height="30" as="geometry" />
        </mxCell>
        <mxCell id="_jmYUeYiFWSKFXeWbkaF-120" value="取消订单" style="rounded=1;whiteSpace=wrap;html=1;fillColor=#dae8fc;strokeColor=#6c8ebf;" vertex="1" parent="_jmYUeYiFWSKFXeWbkaF-1">
          <mxGeometry x="660" y="730" width="120" height="30" as="geometry" />
        </mxCell>
        <mxCell id="_jmYUeYiFWSKFXeWbkaF-121" value="紧急求助" style="rounded=1;whiteSpace=wrap;html=1;fillColor=#dae8fc;strokeColor=#6c8ebf;" vertex="1" parent="_jmYUeYiFWSKFXeWbkaF-1">
          <mxGeometry x="1080" y="680" width="120" height="40" as="geometry" />
        </mxCell>
        <mxCell id="_jmYUeYiFWSKFXeWbkaF-122" value="联系客服" style="rounded=1;whiteSpace=wrap;html=1;fillColor=#dae8fc;strokeColor=#6c8ebf;" vertex="1" parent="_jmYUeYiFWSKFXeWbkaF-1">
          <mxGeometry x="1220" y="680" width="120" height="40" as="geometry" />
        </mxCell>
        <mxCell id="_jmYUeYiFWSKFXeWbkaF-123" value="修改终点" style="rounded=1;whiteSpace=wrap;html=1;fillColor=#dae8fc;strokeColor=#6c8ebf;" vertex="1" parent="_jmYUeYiFWSKFXeWbkaF-1">
          <mxGeometry x="1370" y="680" width="120" height="40" as="geometry" />
        </mxCell>
        <mxCell id="_jmYUeYiFWSKFXeWbkaF-124" value="行程分享" style="rounded=1;whiteSpace=wrap;html=1;fillColor=#dae8fc;strokeColor=#6c8ebf;" vertex="1" parent="_jmYUeYiFWSKFXeWbkaF-1">
          <mxGeometry x="1080" y="730" width="120" height="40" as="geometry" />
        </mxCell>
        <mxCell id="_jmYUeYiFWSKFXeWbkaF-125" value="打电话" style="rounded=1;whiteSpace=wrap;html=1;fillColor=#dae8fc;strokeColor=#6c8ebf;" vertex="1" parent="_jmYUeYiFWSKFXeWbkaF-1">
          <mxGeometry x="1220" y="730" width="120" height="40" as="geometry" />
        </mxCell>
        <mxCell id="_jmYUeYiFWSKFXeWbkaF-126" value="投诉反馈" style="rounded=1;whiteSpace=wrap;html=1;fillColor=#dae8fc;strokeColor=#6c8ebf;" vertex="1" parent="_jmYUeYiFWSKFXeWbkaF-1">
          <mxGeometry x="1370" y="730" width="120" height="40" as="geometry" />
        </mxCell>
      </root>
    </mxGraphModel>
  </diagram>
</mxfile>
